<svg width="40" height="40" viewBox="0 0 40 40" fill="none" xmlns="http://www.w3.org/2000/svg">
<path fill-rule="evenodd" clip-rule="evenodd" d="M22.32 1.5359L35.64 9.2259C36.2481 9.57696 36.753 10.0819 37.1041 10.69C37.4552 11.298 37.64 11.9878 37.64 12.6899V28.0719C37.64 28.774 37.4552 29.4638 37.1041 30.0718C36.753 30.6799 36.2481 31.1848 35.64 31.5359L22.32 39.2259C21.7119 39.577 21.0221 39.7618 20.32 39.7618C19.6179 39.7618 18.9281 39.577 18.32 39.2259L5 31.5359C4.39194 31.1848 3.887 30.6799 3.53592 30.0718C3.18485 29.4638 3.00002 28.774 3 28.0719V12.6899C3.00002 11.9878 3.18485 11.298 3.53592 10.69C3.887 10.0819 4.39194 9.57696 5 9.2259L18.32 1.5359C18.9281 1.18483 19.6179 1 20.32 1C21.0221 1 21.7119 1.18483 22.32 1.5359Z" fill="url(#paint0_linear_136_303)"/>
<path d="M24.5703 18.7517L26.1464 25.9936L21.0087 28.9569L24.5703 18.7517ZM16.4922 17.1048L20.2892 12.134L24.0842 17.1048L20.2892 27.9821L16.4922 17.1048ZM14.431 25.9936L16.0071 18.7507L19.5687 28.9569L14.431 25.9936ZM25.2028 16.938L20.2902 10.5L15.3777 16.938L13.3 26.469L20.2892 30.5L27.2773 26.469L25.2028 16.938Z" fill="white"/>
<defs>
<linearGradient id="paint0_linear_136_303" x1="-4.68" y1="1.38086" x2="48.5729" y2="30.4144" gradientUnits="userSpaceOnUse">
<stop stop-color="#0F4FE3"/>
<stop offset="1" stop-color="#0941C4"/>
</linearGradient>
</defs>
</svg>
