<svg width="40" height="40" xmlns="http://www.w3.org/2000/svg"><defs><linearGradient x1="19.031%" y1="-66.682%" x2="123.324%" y2="91.487%" id="a"><stop stop-color="#FFF" offset="0%"/><stop stop-color="#EAEAEA" offset="100%"/></linearGradient></defs><g fill="none" fill-rule="evenodd"><path d="M20 1.155l13.32 7.69a4 4 0 012 3.464v15.382a4 4 0 01-2 3.464L20 38.845a4 4 0 01-4 0l-13.32-7.69a4 4 0 01-2-3.464V12.309a4 4 0 012-3.464L16 1.155a4 4 0 014 0z" fill="url(#a)" transform="translate(2)"/><path d="M24.583 16.799a1.14 1.14 0 00-1.13 0l-2.59 1.528-1.76.996-2.59 1.528c-.332.199-.764.199-1.13 0l-2.058-1.196a1.145 1.145 0 01-.565-.963v-2.358c0-.399.2-.764.565-.963l2.026-1.163c.332-.199.763-.199 1.129 0l2.026 1.163c.332.2.564.564.564.963v1.528l1.76-1.03v-1.528c0-.398-.199-.763-.564-.963l-3.753-2.192a1.14 1.14 0 00-1.13 0l-3.818 2.192c-.366.2-.565.565-.565.963v4.417c0 .399.2.764.565.964l3.819 2.191c.332.2.764.2 1.129 0l2.59-1.494 1.76-1.03 2.59-1.494c.333-.2.765-.2 1.13 0l2.026 1.162c.332.2.564.565.564.963v2.358c0 .399-.199.764-.564.963L24.583 25.5c-.332.2-.764.2-1.13 0l-2.025-1.162a1.145 1.145 0 01-.565-.963v-1.528l-1.76 1.03v1.527c0 .399.2.764.565.963l3.82 2.192c.331.2.763.2 1.128 0l3.82-2.192c.332-.2.564-.564.564-.963v-4.417c0-.398-.2-.764-.565-.963l-3.852-2.225z" fill="#8247E5" fill-rule="nonzero"/></g></svg>
