<svg width="40" height="40" viewBox="0 0 40 40" fill="none" xmlns="http://www.w3.org/2000/svg">
<path fill-rule="evenodd" clip-rule="evenodd" d="M21.9999 1.15504L35.3199 8.84504C35.928 9.1961 36.4329 9.70104 36.784 10.3091C37.1351 10.9172 37.3199 11.6069 37.3199 12.309V27.691C37.3199 28.3932 37.1351 29.0829 36.784 29.691C36.4329 30.299 35.928 30.804 35.3199 31.155L21.9999 38.845C21.3919 39.1961 20.7021 39.3809 19.9999 39.3809C19.2978 39.3809 18.608 39.1961 17.9999 38.845L4.67993 31.155C4.07187 30.804 3.56693 30.299 3.21586 29.691C2.86478 29.0829 2.67995 28.3932 2.67993 27.691V12.309C2.67995 11.6069 2.86478 10.9172 3.21586 10.3091C3.56693 9.70104 4.07187 9.1961 4.67993 8.84504L17.9999 1.15504C18.608 0.803964 19.2978 0.619141 19.9999 0.619141C20.7021 0.619141 21.3919 0.803964 21.9999 1.15504Z" fill="url(#paint0_linear_136_1065)"/>
<path d="M21.1737 13.3915H25.0622V15.5639L19.0378 23.7424H25.0622V26.6207H21.1737V29H18.7883V26.6207H14.8999V24.4483L20.9242 16.2698H14.8999V13.3915H18.7883V11H21.1737V13.3915Z" fill="white"/>
<defs>
<linearGradient id="paint0_linear_136_1065" x1="-5.00007" y1="1" x2="48.2529" y2="30.0335" gradientUnits="userSpaceOnUse">
<stop stop-color="#F4B728"/>
<stop offset="1" stop-color="#E2A30F"/>
</linearGradient>
</defs>
</svg>
